<?xml version="1.0" encoding="utf-8"?>
<!-- Generator: Adobe Illustrator 16.0.0, SVG Export Plug-In . SVG Version: 6.00 Build 0)  -->
<!DOCTYPE svg PUBLIC "-//W3C//DTD SVG 1.1//EN" "http://www.w3.org/Graphics/SVG/1.1/DTD/svg11.dtd">
<svg version="1.1" id="Capa_3" xmlns="http://www.w3.org/2000/svg" xmlns:xlink="http://www.w3.org/1999/xlink" x="0px" y="0px"
	 width="233.888px" height="55.137px" viewBox="1.871 0.998 233.888 55.137" enable-background="new 1.871 0.998 233.888 55.137"
	 xml:space="preserve">
<g id="nuevo">
	<g>
		<path fill="#E4133B" d="M19.049,2.842c-1.26-1.228-2.997-1.844-5.209-1.844H2.646c-0.518,0-0.774,0.256-0.774,0.774v29.534
			c0,0.515,0.258,0.771,0.774,0.771H13.84c2.212,0,3.949-0.619,5.209-1.863c1.258-1.244,1.89-2.975,1.89-5.188V7.086
			C20.938,4.84,20.306,4.069,19.049,2.842z M16.48,24.845c0,2.247-1.094,3.366-3.276,3.366H6.787c-0.336,0-0.501-0.166-0.501-0.501
			V5.323c0-0.305,0.165-0.457,0.501-0.457h6.415c2.185,0,3.276,0.152,3.276,2.396L16.48,24.845L16.48,24.845z"/>
		<path fill="#E4133B" d="M28.717,8.875h-2.912c-0.484,0-0.727,0.257-0.727,0.771v21.663c0,0.515,0.257,0.771,0.771,0.771h2.913
			c0.272,0,0.463-0.054,0.571-0.159c0.104-0.105,0.158-0.311,0.158-0.611V9.646C29.491,9.132,29.234,8.875,28.717,8.875z"/>
		<path fill="#E4133B" d="M28.762,1.104h-2.958c-0.484,0-0.727,0.244-0.727,0.731v3.172c0,0.515,0.241,0.771,0.727,0.771h2.958
			c0.485,0,0.729-0.258,0.729-0.771V1.836C29.491,1.349,29.248,1.104,28.762,1.104z"/>
		<path fill="#E4133B" d="M50.512,8.875H40.319c-2.215,0-3.942,0.612-5.185,1.84c-1.244,1.229-1.868,2.967-1.868,5.209v7.964
			c0,2.249,0.585,3.985,1.753,5.212c1.167,1.229,2.844,1.841,5.025,1.841h2.047c2.307,0,3.841-0.82,4.6-2.455h0.182v3.459
			c0,2.244-1.107,3.365-3.321,3.365h-7.872c-0.516,0-0.771,0.258-0.771,0.776v2.366c0,0.481,0.256,0.726,0.771,0.726h8.557
			c2.213,0,3.95-0.61,5.21-1.84c1.258-1.231,1.889-2.954,1.889-5.165V9.646C51.333,9.132,51.059,8.875,50.512,8.875z M46.872,23.208
			c0,2.548-1.243,3.82-3.73,3.82h-2.185c-2.151,0-3.229-1.123-3.229-3.365v-7.557c0-2.24,1.078-3.365,3.229-3.365h5.416
			c0.335,0,0.5,0.152,0.5,0.455L46.872,23.208L46.872,23.208z"/>
		<path fill="#E4133B" d="M59.113,1.104h-2.957c-0.486,0-0.729,0.244-0.729,0.731v3.172c0,0.515,0.242,0.771,0.729,0.771h2.957
			c0.486,0,0.729-0.258,0.729-0.771V1.836C59.84,1.349,59.598,1.104,59.113,1.104z"/>
		<path fill="#E4133B" d="M59.067,8.875h-2.911c-0.486,0-0.729,0.257-0.729,0.771v21.663c0,0.515,0.259,0.771,0.773,0.771h2.912
			c0.273,0,0.462-0.054,0.566-0.159c0.107-0.105,0.16-0.311,0.16-0.611V9.646C59.84,9.132,59.581,8.875,59.067,8.875z"/>
		<path fill="#E4133B" d="M74.766,28.211H72.99c-2.277,0-3.415-1.104-3.415-3.321V13.196c0-0.304,0.168-0.455,0.501-0.455h4.231
			c0.545,0,0.818-0.242,0.818-0.729V9.646c0-0.514-0.272-0.771-0.818-0.771h-4.231c-0.333,0-0.501-0.154-0.501-0.456V1.903
			c0-0.521-0.257-0.775-0.771-0.775h-2.867c-0.545,0-0.819,0.257-0.819,0.775v6.516c0,0.302-0.151,0.456-0.454,0.456H62.48
			c-0.517,0-0.771,0.257-0.771,0.771v2.366c0,0.272,0.051,0.466,0.158,0.571c0.106,0.105,0.312,0.158,0.613,0.158h2.185
			c0.303,0,0.454,0.151,0.454,0.455V25.12c0,2.215,0.64,3.928,1.912,5.14c1.273,1.217,3.031,1.819,5.276,1.819h2.459
			c0.547,0,0.819-0.239,0.819-0.729v-2.363C75.586,28.469,75.313,28.211,74.766,28.211z"/>
		<path fill="#E4133B" d="M94.921,8.875h-10.19c-2.245,0-3.981,0.612-5.212,1.84c-1.229,1.229-1.84,2.967-1.84,5.209v9.103
			c0,2.217,0.611,3.944,1.84,5.188c1.229,1.244,2.967,1.864,5.212,1.864h1.773c2.334,0,3.868-0.805,4.594-2.411h0.185v1.641
			c0,0.515,0.258,0.771,0.774,0.771h2.863c0.547,0,0.82-0.256,0.82-0.771V9.646C95.741,9.132,95.468,8.875,94.921,8.875z
			 M91.282,24.344c0,2.579-1.244,3.867-3.733,3.867h-2.18c-2.188,0-3.278-1.119-3.278-3.366v-8.736c0-2.242,1.091-3.365,3.278-3.365
			h5.411c0.335,0,0.502,0.151,0.502,0.453V24.344z"/>
		<path fill="#E4133B" d="M103.476,1.06h-2.866c-0.515,0-0.773,0.262-0.773,0.776v29.473c0,0.515,0.26,0.771,0.773,0.771h2.866
			c0.518,0,0.775-0.257,0.775-0.771V1.836C104.252,1.321,103.993,1.06,103.476,1.06z"/>
		<path fill="#FFFFFF" d="M127.093,0.998h-1.317c-0.305,0-0.456,0.184-0.456,0.547V15.79c0,0.273-0.151,0.408-0.457,0.408h-12.739
			c-0.304,0-0.453-0.135-0.453-0.408V1.545c0-0.363-0.168-0.547-0.503-0.547h-1.319c-0.306,0-0.456,0.184-0.456,0.547v29.987
			c0,0.367,0.15,0.547,0.456,0.547h1.319c0.335,0,0.503-0.18,0.503-0.547V18.657c0-0.272,0.148-0.409,0.453-0.409h12.739
			c0.306,0,0.457,0.137,0.457,0.409v12.875c0,0.367,0.151,0.547,0.456,0.547h1.317c0.334,0,0.502-0.18,0.502-0.547V1.545
			C127.594,1.182,127.427,0.998,127.093,0.998z"/>
		<path fill="#FFFFFF" d="M142.88,8.875h-3.913c-1.97,0-3.523,0.573-4.661,1.729c-1.139,1.15-1.705,2.726-1.705,4.729v10.283
			c0,2.004,0.566,3.582,1.705,4.731c1.138,1.155,2.691,1.729,4.661,1.729h3.913c1.975,0,3.535-0.573,4.689-1.729
			c1.149-1.149,1.728-2.729,1.728-4.731V15.333c0-2.004-0.576-3.577-1.728-4.729C146.415,9.448,144.854,8.875,142.88,8.875z
			 M147.024,25.573c0,1.427-0.375,2.522-1.115,3.299c-0.743,0.771-1.813,1.16-3.207,1.16h-3.551c-1.396,0-2.459-0.391-3.186-1.16
			c-0.729-0.774-1.094-1.872-1.094-3.299V15.382c0-1.43,0.365-2.529,1.094-3.3c0.727-0.775,1.79-1.162,3.186-1.162h3.551
			c1.396,0,2.464,0.387,3.207,1.162c0.74,0.771,1.115,1.87,1.115,3.3V25.573z"/>
		<path fill="#FFFFFF" d="M169.591,8.875h-1.315c-0.337,0-0.503,0.18-0.503,0.543v16.155c0,1.427-0.419,2.522-1.252,3.299
			c-0.836,0.771-1.979,1.16-3.436,1.16h-2.959c-1.396,0-2.455-0.395-3.187-1.187c-0.727-0.787-1.093-1.896-1.093-3.317V9.418
			c0-0.363-0.168-0.543-0.497-0.543h-1.321c-0.302,0-0.453,0.18-0.453,0.543v16.198c0,2.004,0.559,3.582,1.681,4.731
			c1.123,1.155,2.657,1.729,4.6,1.729h3.003c2.364,0,3.942-0.785,4.729-2.364h0.186v1.817c0,0.369,0.166,0.547,0.503,0.547h1.315
			c0.304,0,0.457-0.178,0.457-0.547V9.418C170.048,9.055,169.894,8.875,169.591,8.875z"/>
		<path fill="#FFFFFF" d="M184.837,20.159l-5.689-2.276c-0.974-0.335-1.689-0.743-2.163-1.228c-0.47-0.486-0.705-1.156-0.705-2.004
			v-1.05c0-0.726,0.313-1.36,0.934-1.907c0.624-0.547,1.556-0.82,2.8-0.82h7.144c0.335,0,0.503-0.15,0.503-0.452v-1.05
			c0-0.333-0.168-0.497-0.503-0.497h-7.366c-3.918,0-5.875,1.774-5.875,5.323c0,1.459,0.326,2.595,0.979,3.41
			c0.651,0.819,1.753,1.533,3.3,2.14l5.687,2.186c1.702,0.608,2.552,1.897,2.552,3.868v1.092c0,2.122-1.367,3.184-4.097,3.184
			h-7.688c-0.335,0-0.503,0.156-0.503,0.457v1.045c0,0.338,0.168,0.502,0.503,0.502h7.917c2.122,0,3.691-0.438,4.709-1.317
			c1.016-0.882,1.524-2.231,1.524-4.051c0-1.821-0.265-3.238-0.794-4.255C187.468,21.442,186.411,20.673,184.837,20.159z"/>
		<path fill="#FFFFFF" d="M202.672,8.875h-3.914c-1.973,0-3.526,0.573-4.665,1.729c-1.134,1.15-1.704,2.726-1.704,4.729v10.283
			c0,2.004,0.57,3.582,1.704,4.731c1.139,1.155,2.692,1.729,4.665,1.729h9.511c0.333,0,0.502-0.163,0.502-0.5v-1.045
			c0-0.334-0.169-0.502-0.502-0.502h-9.329c-1.396,0-2.455-0.39-3.184-1.16c-0.729-0.773-1.094-1.871-1.094-3.299v-3.504
			c0-0.273,0.135-0.408,0.407-0.408h13.472c0.362,0,0.547-0.187,0.547-0.545v-5.782c0-2.003-0.58-3.577-1.729-4.728
			C206.203,9.448,204.64,8.875,202.672,8.875z M206.812,19.429c0,0.273-0.136,0.412-0.408,0.412h-11.333
			c-0.272,0-0.407-0.139-0.407-0.412v-4.047c0-1.43,0.363-2.529,1.094-3.3c0.729-0.775,1.788-1.162,3.184-1.162h3.6
			c1.396,0,2.455,0.387,3.181,1.162c0.731,0.771,1.095,1.87,1.095,3.3v4.047H206.812z"/>
		<path fill="#FFFFFF" d="M235.204,19.054L218.857,8.969c-0.424-0.226-0.803,0-0.803,0.429v0.639c0,0.687,0.193,0.8,0.465,0.966
			l15.197,9.479l-15.197,9.48c-0.271,0.169-0.465,0.281-0.465,0.966v0.638c0,0.434,0.379,0.652,0.803,0.434l16.348-10.088
			c0.362-0.264,0.555-0.508,0.555-1.096v-0.328v-0.011v-0.329C235.759,19.559,235.568,19.313,235.204,19.054z"/>
	</g>
	<g>
		<path fill="#FFFFFF" d="M114.214,53.243h-1.896c-0.918,0-1.626-0.244-2.125-0.731c-0.5-0.487-0.75-1.188-0.75-2.104v-5.52
			c0-0.916,0.25-1.619,0.75-2.105c0.498-0.486,1.206-0.729,2.125-0.729h1.896c0.906,0,1.611,0.247,2.116,0.739
			c0.504,0.49,0.757,1.191,0.757,2.098v0.818c0,0.255-0.128,0.383-0.384,0.383h-1.461c-0.244,0-0.365-0.128-0.365-0.383v-0.715
			c0-0.37-0.079-0.637-0.234-0.791c-0.158-0.157-0.42-0.234-0.792-0.234h-1.186c-0.358,0-0.617,0.077-0.773,0.234
			c-0.156,0.154-0.234,0.421-0.234,0.791v5.311c0,0.371,0.078,0.637,0.234,0.792c0.157,0.156,0.415,0.233,0.773,0.233h1.186
			c0.372,0,0.634-0.077,0.792-0.233c0.155-0.155,0.234-0.421,0.234-0.792v-0.713c0-0.256,0.121-0.384,0.365-0.384h1.461
			c0.256,0,0.384,0.128,0.384,0.384v0.816c0,0.904-0.253,1.604-0.757,2.098C115.825,52.997,115.12,53.243,114.214,53.243z"/>
		<path fill="#FFFFFF" d="M123.058,53.243h-1.55c-0.919,0-1.625-0.244-2.124-0.731c-0.5-0.487-0.748-1.188-0.748-2.104v-3.203
			c0-0.918,0.248-1.617,0.748-2.105c0.499-0.486,1.205-0.73,2.124-0.73h1.55c0.903,0,1.608,0.248,2.113,0.74
			c0.505,0.491,0.758,1.192,0.758,2.098v3.205c0,0.904-0.253,1.604-0.758,2.096S123.962,53.243,123.058,53.243z M121.838,51.345
			h0.89c0.37,0,0.635-0.075,0.792-0.225c0.155-0.15,0.234-0.413,0.234-0.785v-3.063c0-0.371-0.079-0.634-0.234-0.783
			c-0.157-0.15-0.422-0.228-0.792-0.228h-0.89c-0.371,0-0.633,0.075-0.782,0.228c-0.15,0.149-0.228,0.412-0.228,0.783v3.063
			c0,0.372,0.075,0.635,0.228,0.785C121.205,51.27,121.467,51.345,121.838,51.345z"/>
		<path fill="#FFFFFF" d="M130.926,53.243h-0.714c-0.895,0-1.569-0.244-2.028-0.731c-0.457-0.487-0.688-1.188-0.688-2.104v-3.203
			c0-0.918,0.229-1.617,0.688-2.105c0.459-0.486,1.136-0.73,2.028-0.73h0.714c0.359,0,0.701,0.078,1.026,0.234
			c0.323,0.156,0.551,0.395,0.679,0.704h0.07v-3.933c0-0.245,0.12-0.366,0.363-0.366h1.48c0.243,0,0.364,0.121,0.364,0.366V52.88
			c0,0.244-0.121,0.363-0.364,0.363h-1.48c-0.243,0-0.363-0.119-0.363-0.363v-0.574h-0.07c-0.128,0.313-0.354,0.548-0.679,0.704
			C131.627,53.166,131.285,53.243,130.926,53.243z M132.701,50.006v-2.403c0-0.882-0.399-1.32-1.201-1.32h-0.783
			c-0.37,0-0.635,0.076-0.784,0.233c-0.147,0.156-0.226,0.421-0.226,0.793v2.993c0,0.371,0.076,0.635,0.226,0.792
			c0.149,0.156,0.414,0.235,0.784,0.235h0.783C132.302,51.329,132.701,50.887,132.701,50.006z"/>
		<path fill="#FFFFFF" d="M136.912,42.868v-1.514c0-0.231,0.115-0.351,0.351-0.351h1.514c0.23,0,0.349,0.108,0.349,0.331v1.531
			c0,0.23-0.116,0.348-0.349,0.348h-1.514C137.029,43.216,136.912,43.101,136.912,42.868z M136.912,52.878v-8.146
			c0-0.242,0.115-0.365,0.351-0.365h1.495c0.244,0,0.365,0.123,0.365,0.365v8.146c0,0.15-0.024,0.249-0.079,0.297
			c-0.051,0.045-0.144,0.068-0.27,0.068h-1.498C137.033,53.243,136.912,53.122,136.912,52.878z"/>
		<path fill="#FFFFFF" d="M142.97,53.243h-1.479c-0.243,0-0.366-0.121-0.366-0.365v-8.146c0-0.242,0.123-0.365,0.366-0.365h1.479
			c0.242,0,0.365,0.123,0.365,0.365v0.573h0.069c0.255-0.625,0.823-0.938,1.705-0.938h0.559c1.821,0,2.731,0.945,2.731,2.838v5.676
			c0,0.244-0.128,0.363-0.382,0.363h-1.462c-0.246,0-0.366-0.119-0.366-0.363v-5.569c0-0.37-0.079-0.637-0.234-0.793
			c-0.156-0.155-0.421-0.233-0.792-0.233h-0.628c-0.802,0-1.2,0.438-1.2,1.32v5.275C143.336,53.122,143.213,53.243,142.97,53.243z"
			/>
		<path fill="#FFFFFF" d="M153.364,52.843h-0.574c-0.895,0-1.57-0.243-2.027-0.73c-0.46-0.485-0.688-1.188-0.688-2.104v-2.804
			c0-0.918,0.249-1.617,0.747-2.105c0.498-0.486,1.208-0.73,2.123-0.73h4.021c0.255,0,0.383,0.123,0.383,0.365v8.582
			c0,0.905-0.253,1.604-0.759,2.09c-0.504,0.486-1.209,0.729-2.114,0.729h-3.343c-0.139,0-0.232-0.024-0.287-0.079
			c-0.052-0.051-0.077-0.143-0.077-0.27v-1.201c0-0.243,0.121-0.364,0.364-0.364h2.979c0.371,0,0.636-0.079,0.792-0.233
			c0.156-0.158,0.235-0.416,0.235-0.774V51.89h-0.07c-0.128,0.314-0.354,0.551-0.679,0.714
			C154.064,52.763,153.723,52.843,153.364,52.843z M155.139,49.606v-3.134c0-0.128-0.07-0.19-0.209-0.19h-1.638
			c-0.372,0-0.633,0.076-0.783,0.233c-0.15,0.156-0.227,0.421-0.227,0.793v2.595c0,0.369,0.074,0.631,0.227,0.782
			c0.15,0.15,0.411,0.229,0.783,0.229h0.644C154.738,50.911,155.139,50.476,155.139,49.606z"/>
		<path fill="#FFFFFF" d="M162.989,50.39v-0.349c0-0.244,0.121-0.367,0.366-0.367h1.479c0.243,0,0.364,0.123,0.364,0.367v0.14
			c0,0.439,0.088,0.741,0.262,0.904c0.175,0.163,0.494,0.244,0.958,0.244h0.818c0.452,0,0.769-0.088,0.947-0.262
			c0.179-0.175,0.271-0.5,0.271-0.977v-0.208c0-0.339-0.138-0.597-0.41-0.772c-0.271-0.183-0.61-0.289-1.018-0.324
			c-0.405-0.034-0.845-0.103-1.315-0.198c-0.47-0.101-0.907-0.229-1.313-0.384c-0.405-0.158-0.747-0.463-1.02-0.922
			c-0.272-0.461-0.409-1.049-0.409-1.771v-0.606c0-0.904,0.256-1.607,0.766-2.106c0.514-0.5,1.22-0.748,2.125-0.748h1.74
			c0.916,0,1.63,0.248,2.143,0.748c0.51,0.499,0.766,1.202,0.766,2.106v0.328c0,0.246-0.121,0.366-0.365,0.366h-1.479
			c-0.243,0-0.366-0.12-0.366-0.366V45.13c0-0.452-0.086-0.762-0.259-0.922c-0.177-0.163-0.494-0.244-0.959-0.244h-0.68
			c-0.478,0-0.799,0.09-0.965,0.27c-0.169,0.182-0.253,0.53-0.253,1.056v0.329c0,0.546,0.476,0.857,1.427,0.938
			c0.986,0.083,1.863,0.279,2.63,0.594c0.405,0.174,0.744,0.484,1.019,0.934c0.271,0.447,0.408,1.019,0.408,1.714v0.593
			c0,0.904-0.254,1.605-0.767,2.104c-0.511,0.5-1.219,0.75-2.123,0.75h-1.896c-0.903,0-1.613-0.25-2.125-0.75
			C163.244,51.995,162.989,51.294,162.989,50.39z"/>
		<path fill="#FFFFFF" d="M178.133,51.696v1.198c0,0.13-0.025,0.22-0.078,0.271c-0.052,0.051-0.146,0.075-0.287,0.075h-2.595
			c-0.917,0-1.625-0.242-2.122-0.729c-0.5-0.485-0.748-1.188-0.748-2.104v-3.205c0-0.916,0.248-1.616,0.748-2.104
			c0.497-0.485,1.205-0.729,2.122-0.729h2.595c0.244,0,0.365,0.123,0.365,0.365v1.2c0,0.129-0.025,0.218-0.078,0.271
			c-0.052,0.054-0.146,0.08-0.287,0.08h-2.245c-0.358,0-0.617,0.076-0.773,0.232c-0.158,0.156-0.234,0.421-0.234,0.793v2.993
			c0,0.371,0.076,0.636,0.234,0.792c0.156,0.156,0.415,0.234,0.773,0.234h2.245C178.011,51.329,178.133,51.45,178.133,51.696z"/>
		<path fill="#FFFFFF" d="M181.476,53.243h-1.48c-0.241,0-0.364-0.121-0.364-0.365V41.372c0-0.245,0.123-0.366,0.364-0.366h1.48
			c0.242,0,0.363,0.121,0.363,0.366v3.933h0.07c0.256-0.625,0.822-0.938,1.707-0.938h0.556c1.822,0,2.734,0.945,2.734,2.838v5.676
			c0,0.244-0.129,0.363-0.385,0.363h-1.462c-0.244,0-0.366-0.119-0.366-0.363v-5.569c0-0.37-0.076-0.637-0.234-0.793
			c-0.155-0.155-0.421-0.233-0.792-0.233h-0.626c-0.801,0-1.202,0.438-1.202,1.322v5.273
			C181.84,53.122,181.719,53.243,181.476,53.243z"/>
		<path fill="#FFFFFF" d="M192.98,53.243h-1.549c-0.917,0-1.623-0.244-2.123-0.731c-0.499-0.487-0.748-1.188-0.748-2.104v-3.203
			c0-0.918,0.249-1.617,0.748-2.105c0.5-0.486,1.206-0.73,2.123-0.73h1.549c0.906,0,1.61,0.248,2.115,0.74
			c0.505,0.491,0.758,1.192,0.758,2.098v3.205c0,0.904-0.253,1.604-0.758,2.096S193.886,53.243,192.98,53.243z M191.762,51.345
			h0.889c0.37,0,0.635-0.075,0.79-0.225c0.158-0.15,0.237-0.413,0.237-0.785v-3.063c0-0.371-0.079-0.634-0.237-0.783
			c-0.155-0.15-0.42-0.228-0.79-0.228h-0.889c-0.372,0-0.634,0.075-0.783,0.228c-0.15,0.149-0.228,0.412-0.228,0.783v3.063
			c0,0.372,0.075,0.635,0.228,0.785C191.129,51.27,191.39,51.345,191.762,51.345z"/>
		<path fill="#FFFFFF" d="M201.841,53.243h-1.549c-0.917,0-1.625-0.244-2.124-0.731c-0.5-0.487-0.749-1.188-0.749-2.104v-3.203
			c0-0.918,0.249-1.617,0.749-2.105c0.499-0.486,1.207-0.73,2.124-0.73h1.549c0.904,0,1.609,0.248,2.114,0.74
			c0.505,0.491,0.757,1.192,0.757,2.098v3.205c0,0.904-0.252,1.604-0.757,2.096S202.745,53.243,201.841,53.243z M200.623,51.345
			h0.887c0.372,0,0.638-0.075,0.792-0.225c0.156-0.15,0.235-0.413,0.235-0.785v-3.063c0-0.371-0.079-0.634-0.235-0.783
			c-0.154-0.15-0.42-0.228-0.792-0.228h-0.887c-0.373,0-0.633,0.075-0.783,0.228c-0.15,0.149-0.229,0.412-0.229,0.783v3.063
			c0,0.372,0.077,0.635,0.229,0.785C199.99,51.27,200.25,51.345,200.623,51.345z"/>
		<path fill="#FFFFFF" d="M208.386,53.243h-1.479c-0.243,0-0.366-0.121-0.366-0.365V41.372c0-0.245,0.123-0.366,0.366-0.366h1.479
			c0.242,0,0.365,0.121,0.365,0.366v11.506C208.752,53.122,208.629,53.243,208.386,53.243z"/>
	</g>
</g>
</svg>
